<?xml version="1.0" encoding="utf-8"?>
<!-- Generator: Adobe Illustrator 22.0.0, SVG Export Plug-In . SVG Version: 6.00 Build 0)  -->
<svg version="1.1" id="Camada_1" xmlns="http://www.w3.org/2000/svg" xmlns:xlink="http://www.w3.org/1999/xlink" x="0px" y="0px"
	 viewBox="0 0 800 800" style="enable-background:new 0 0 800 800;" xml:space="preserve">
<style type="text/css">
	.st0{fill:url(#SVGID_1_);}
	.st1{fill:url(#SVGID_2_);}
	.st2{fill:url(#SVGID_3_);}
	.st3{fill:url(#SVGID_4_);}
	.st4{fill:url(#SVGID_5_);}
</style>
<g id="Social_Distance">
	<linearGradient id="SVGID_1_" gradientUnits="userSpaceOnUse" x1="92.2" y1="199.4306" x2="116.3" y2="199.4306">
		<stop  offset="0" style="stop-color:#F3801F"/>
		<stop  offset="0.1115" style="stop-color:#EB7C21"/>
		<stop  offset="0.2835" style="stop-color:#D57226"/>
		<stop  offset="0.4947" style="stop-color:#B2602D"/>
		<stop  offset="0.7367" style="stop-color:#814838"/>
		<stop  offset="1" style="stop-color:#432A46"/>
	</linearGradient>
	<rect x="92.2" y="187.4" class="st0" width="24.1" height="24.1"/>
	<linearGradient id="SVGID_2_" gradientUnits="userSpaceOnUse" x1="140.4" y1="199.4306" x2="260.9" y2="199.4306">
		<stop  offset="0" style="stop-color:#F3801F"/>
		<stop  offset="0.1115" style="stop-color:#EB7C21"/>
		<stop  offset="0.2835" style="stop-color:#D57226"/>
		<stop  offset="0.4947" style="stop-color:#B2602D"/>
		<stop  offset="0.7367" style="stop-color:#814838"/>
		<stop  offset="1" style="stop-color:#432A46"/>
	</linearGradient>
	<rect x="140.4" y="187.4" class="st1" width="120.5" height="24.1"/>
	<linearGradient id="SVGID_3_" gradientUnits="userSpaceOnUse" x1="44" y1="380.1806" x2="767" y2="380.1806">
		<stop  offset="0" style="stop-color:#F3801F"/>
		<stop  offset="0.1115" style="stop-color:#EB7C21"/>
		<stop  offset="0.2835" style="stop-color:#D57226"/>
		<stop  offset="0.4947" style="stop-color:#B2602D"/>
		<stop  offset="0.7367" style="stop-color:#814838"/>
		<stop  offset="1" style="stop-color:#432A46"/>
	</linearGradient>
	<path class="st2" d="M730.8,307.9H574.2V91C574.1,71,558,54.9,538,54.8H273C253,54.9,236.9,71,236.8,91v36.2H80.2
		c-19.9,0.1-36.1,16.2-36.2,36.1v72.3c0.1,19.9,16.2,36.1,36.2,36.2h44.6l69.3,46.2c5.6,3.7,13,2.1,16.7-3.4c1.3-1.9,2-4.2,2-6.6
		v-36.1h24.1v180.7h-48.2c-1.5,0-3,0.3-4.5,0.8l-43.7,17.5v-18.3c0-5.9-4.3-11-10.1-11.9l-72.3-12c-6.6-1.1-12.8,3.4-13.8,10
		c-0.1,0.6-0.2,1.3-0.2,2v241c0,6.7,5.4,12,12.1,12c0.6,0,1.3,0,1.9-0.1l72.3-12c5.8-0.9,10.1-6,10.1-11.9v-12h34.2l142.7,47.6
		c1.3,0.4,2.5,0.6,3.9,0.6h180.7c1.4,0,2.7-0.2,4-0.7l185.2-65.3c16.6-5.9,27.7-21.6,27.7-39.2c0-23-18.6-41.6-41.6-41.6
		c-4,0-7.9,0.6-11.7,1.7l-91.3,26.9V452.5h24.1v36.2c0,4.5,2.4,8.5,6.4,10.6c3.9,2.1,8.6,1.9,12.3-0.6l69.3-46.2h44.6
		c19.9-0.1,36.1-16.2,36.2-36.1V344C766.9,324.1,750.8,307.9,730.8,307.9z M116.3,659.1l-48.2,8.1V454.6l48.2,8.1V659.1z
		 M321.2,78.9h168.7V91c0,6.7-5.4,12-12,12H333.2c-6.7,0-12-5.4-12-12V78.9z M260.9,91c0-6.7,5.4-12.1,12-12.1h24.1V91
		c0.1,19.9,16.2,36.1,36.1,36.2h144.6c19.9-0.1,36.1-16.2,36.1-36.2V78.9H538c6.7,0,12,5.4,12,12.1v216.9h-12
		c-19.9,0.1-36.1,16.2-36.1,36.1v72.3c0.1,19.9,16.2,36.1,36.1,36.1h12v141.9l-49.9,14.7h-91.6L343.6,573h122.2
		c6.7,0,12.1-5.4,12.1-12v-36.2c0-3.2-1.3-6.3-3.5-8.6l-24.1-24.1c-1.7-1.7-3.8-2.8-6.1-3.3l-180.8-36.1c-0.8-0.1-1.6-0.2-2.4-0.2
		V271.7h12c19.9-0.1,36.1-16.2,36.1-36.2v-72.3c-0.1-19.9-16.2-36.1-36.1-36.1h-12V91z M200.7,247.6c-6.7,0-12.1,5.4-12.1,12v25.7
		L135,249.7c-1.9-1.3-4.3-2.1-6.6-2H80.2c-6.7,0-12.1-5.4-12.1-12.1v-72.3c0-6.7,5.4-12.1,12.1-12.1H273c6.7,0,12,5.4,12,12.1v72.3
		c0,6.7-5.4,12.1-12,12.1H200.7z M672.4,583.6c9.2-2.7,18.9,2.7,21.6,11.9c2.5,8.8-2.2,18.1-10.8,21.2l-183.3,64.7H323.1
		l-142.7-47.6c-1.3-0.4-2.5-0.6-3.9-0.6h-36.2V496.8l50.5-20.2h68.8l176.1,35.2l18,18v19.2H297.1c-6.7,0-12,5.4-12,12.1
		c0,4.3,2.3,8.3,6.1,10.4l108.5,60.3c1.8,1,3.8,1.6,5.9,1.6h96.4c1.1,0,2.3-0.1,3.4-0.5L672.4,583.6z M742.9,416.3
		c0,6.7-5.4,12.1-12.1,12.1h-48.2c-2.4,0-4.7,0.7-6.6,2l-53.6,35.7v-25.7c0-6.7-5.4-12-12.1-12H538c-6.7,0-12-5.4-12-12.1V344
		c0-6.7,5.4-12,12-12h192.8c6.7,0,12.1,5.4,12.1,12V416.3z"/>
	<linearGradient id="SVGID_4_" gradientUnits="userSpaceOnUse" x1="550.1" y1="380.1806" x2="574.2" y2="380.1806">
		<stop  offset="0" style="stop-color:#F3801F"/>
		<stop  offset="0.1115" style="stop-color:#EB7C21"/>
		<stop  offset="0.2835" style="stop-color:#D57226"/>
		<stop  offset="0.4947" style="stop-color:#B2602D"/>
		<stop  offset="0.7367" style="stop-color:#814838"/>
		<stop  offset="1" style="stop-color:#432A46"/>
	</linearGradient>
	<rect x="550.1" y="368.1" class="st3" width="24.1" height="24.1"/>
	<linearGradient id="SVGID_5_" gradientUnits="userSpaceOnUse" x1="598.3" y1="380.1806" x2="718.8" y2="380.1806">
		<stop  offset="0" style="stop-color:#F3801F"/>
		<stop  offset="0.1115" style="stop-color:#EB7C21"/>
		<stop  offset="0.2835" style="stop-color:#D57226"/>
		<stop  offset="0.4947" style="stop-color:#B2602D"/>
		<stop  offset="0.7367" style="stop-color:#814838"/>
		<stop  offset="1" style="stop-color:#432A46"/>
	</linearGradient>
	<rect x="598.3" y="368.1" class="st4" width="120.5" height="24.1"/>
</g>
</svg>
