<svg id="Camada_1" data-name="Camada 1" xmlns="http://www.w3.org/2000/svg" xmlns:xlink="http://www.w3.org/1999/xlink" viewBox="0 0 800 800"><defs><style>.cls-1{fill:url(#Gradiente_sem_nome_7);}.cls-2{fill:url(#Gradiente_sem_nome_7-2);}.cls-3{fill:url(#Gradiente_sem_nome_7-3);}</style><linearGradient id="Gradiente_sem_nome_7" x1="638.95" y1="129.08" x2="733.02" y2="129.08" gradientUnits="userSpaceOnUse"><stop offset="0" stop-color="#f3801f"/><stop offset="0.11" stop-color="#eb7c21"/><stop offset="0.28" stop-color="#d57226"/><stop offset="0.49" stop-color="#b2602d"/><stop offset="0.74" stop-color="#814838"/><stop offset="1" stop-color="#432a46"/></linearGradient><linearGradient id="Gradiente_sem_nome_7-2" x1="32" y1="409.17" x2="745.27" y2="409.17" xlink:href="#Gradiente_sem_nome_7"/><linearGradient id="Gradiente_sem_nome_7-3" x1="625.93" y1="125.23" x2="759.64" y2="125.23" xlink:href="#Gradiente_sem_nome_7"/></defs><title>3</title><path class="cls-1" d="M716.8,175.35a8.88,8.88,0,0,0,11.55-4.92h0a64.25,64.25,0,0,0-83.61-83.61,8.87,8.87,0,1,0,6.18,16.63,4.22,4.22,0,0,0,.45-.18,46.51,46.51,0,0,1,60.52,60.52,8.86,8.86,0,0,0,4.91,11.55Z"/><path class="cls-2" d="M97.94,654.46a8.63,8.63,0,0,0,1.77,2.13l.39.31a269.67,269.67,0,0,0,194.11,91,7.93,7.93,0,0,0,2.48.06c1.85,0,3.7.07,5.56.07s3.72,0,5.57-.07a7.94,7.94,0,0,0,2.48-.06,269.66,269.66,0,0,0,194.16-91,3.21,3.21,0,0,0,.3-.21,8.89,8.89,0,0,0,1.8-2.16,269.08,269.08,0,0,0,65.52-161.58,8.9,8.9,0,0,0,4.11-2.3,61.26,61.26,0,0,0,0-86.54l-20.62-20.62c-2.08-5.59-4.36-11.14-6.82-16.6a320.8,320.8,0,0,1,56-26.84l134.63-49a8.87,8.87,0,0,0,3.25-14.61l-59.08-59.09A61.19,61.19,0,0,0,598.26,132L539.2,72.94a8.87,8.87,0,0,0-14.61,3.24l-49,134.64a321.71,321.71,0,0,1-20,44.35,267.68,267.68,0,0,0-145.35-47.56,9.07,9.07,0,0,0-2.21-.06c-1.92,0-3.85-.06-5.78-.07s-3.8,0-5.69.08a8.36,8.36,0,0,0-2.29.05,269.72,269.72,0,0,0-194.18,91c-.13.1-.26.19-.38.3A9.3,9.3,0,0,0,97.94,301a269.78,269.78,0,0,0,0,353.44Zm8-335.33a269.92,269.92,0,0,0,55.51,44.95,363.4,363.4,0,0,0-17.11,104.79H49.92a251.23,251.23,0,0,1,56-149.74Zm325.44,2.18,62.94,62.94q-10.08,8.6-19.45,17.94a17.29,17.29,0,0,1-24.45,0h0l-37-37a17.31,17.31,0,0,1,0-24.45c3.42-3.42,6.81-7,10.08-10.52,2.68-2.93,5.29-5.91,7.87-8.92Zm67.24,315a266.88,266.88,0,0,0-55.46-45.17,363.66,363.66,0,0,0,17-104.53h94.41a251.22,251.22,0,0,1-56,149.7ZM293.38,552.07a269.67,269.67,0,0,0-116.16,30.41,347.47,347.47,0,0,1-15.15-95.87H293.38Zm0,17.76V728c-50.52-26.17-88.48-71.21-110.3-128.57a252.06,252.06,0,0,1,110.3-29.63Zm17.75-.05a249.05,249.05,0,0,1,110.4,29.42c-21.8,57.49-59.81,102.63-110.4,128.84Zm0-17.76V486.61h131.3a347.25,347.25,0,0,1-15.05,95.58A266.64,266.64,0,0,0,311.13,552Zm0-148.57a265.16,265.16,0,0,0,95.12-20.33L437.12,414a367.13,367.13,0,0,1,5.33,54.87H311.12ZM460.2,468.86a392,392,0,0,0-3.49-44.36,35,35,0,0,0,5.86.5,35.44,35.44,0,0,0,4.12-.24,35.08,35.08,0,0,0,20.71-10l.2-.19,54.33,54.32ZM400.87,328.21a35.07,35.07,0,0,0-6.48,40.56,247.23,247.23,0,0,1-83.26,16.93V227.43c39.66,20.56,72.33,53.33,95,95.35Q403.54,325.53,400.87,328.21ZM293.38,385.65A251.93,251.93,0,0,1,183.08,356c21.82-57.35,59.78-102.39,110.3-128.56Zm0,17.76v65.47H162.07A347.47,347.47,0,0,1,177.22,373a269.52,269.52,0,0,0,116.16,30.4Zm-149,83.2a363.13,363.13,0,0,0,17.11,104.8,269.61,269.61,0,0,0-55.51,44.94,251.23,251.23,0,0,1-56-149.74Zm-26.71,163.2a252,252,0,0,1,49.91-41.31c19.08,48.8,49.35,89.19,88.8,117.55A252.33,252.33,0,0,1,117.62,649.81Zm230.56,76.24c39.52-28.41,69.81-68.89,88.89-117.8a249.24,249.24,0,0,1,49.84,41.53,252.31,252.31,0,0,1-138.73,76.27ZM569.36,471a8.19,8.19,0,0,0-.89-.66l-67.94-67.95a322.13,322.13,0,0,1,27.17-21.71l35.95,35.94A43.53,43.53,0,0,1,569.36,471Zm64.37-332.54a43.43,43.43,0,0,1,37.06,66.11l-59.73-59.73A43.1,43.1,0,0,1,633.73,138.43ZM492.31,216.88,536.5,95.34,720.26,279.11l-121.54,44.2A341.23,341.23,0,0,0,508.19,373l-65.58-65.57A337.31,337.31,0,0,0,492.31,216.88ZM418.7,308.82A249.19,249.19,0,0,0,348,229.34a249.62,249.62,0,0,1,98.58,41.21A318.91,318.91,0,0,1,418.7,308.82Zm-162.35-79.4c-39.46,28.36-69.72,68.75-88.81,117.57a252.09,252.09,0,0,1-49.92-41.31A252.39,252.39,0,0,1,256.35,229.42Z"/><path class="cls-3" d="M638.12,81.59a75.52,75.52,0,0,1,98.27,98.27,8.87,8.87,0,0,0,16.41,6.75.61.61,0,0,0,.05-.12A93.27,93.27,0,0,0,631.49,65.12a8.87,8.87,0,1,0,6.63,16.46h0Z"/></svg>