<svg id="Camada_1" data-name="Camada 1" xmlns="http://www.w3.org/2000/svg" xmlns:xlink="http://www.w3.org/1999/xlink" viewBox="0 0 800 800"><defs><style>.cls-1{fill:url(#Gradiente_sem_nome_7);}.cls-2{fill:url(#Gradiente_sem_nome_7-2);}.cls-3{fill:url(#Gradiente_sem_nome_7-3);}</style><linearGradient id="Gradiente_sem_nome_7" x1="47" y1="480.89" x2="764.32" y2="480.89" gradientUnits="userSpaceOnUse"><stop offset="0" stop-color="#f3801f"/><stop offset="0.11" stop-color="#eb7c21"/><stop offset="0.28" stop-color="#d57226"/><stop offset="0.49" stop-color="#b2602d"/><stop offset="0.74" stop-color="#814838"/><stop offset="1" stop-color="#432a46"/></linearGradient><linearGradient id="Gradiente_sem_nome_7-2" x1="419.72" y1="161.81" x2="764.89" y2="161.81" xlink:href="#Gradiente_sem_nome_7"/><linearGradient id="Gradiente_sem_nome_7-3" x1="310.41" y1="635.43" x2="564.89" y2="635.43" xlink:href="#Gradiente_sem_nome_7"/></defs><title>2</title><path class="cls-1" d="M620.47,269.89H333.38l-62.6-49.11H47V672.9c0,36.45,29.62,66.87,66.05,67.82l497.08.28h0a67,67,0,0,0,64.53-49.35l89.62-330.18H620.47ZM118.18,698.58h-4.31A26.17,26.17,0,0,1,89.15,672.9v-410H256.22L318.82,312h259.5v49.43H235.12l-84.4,310.67A35.75,35.75,0,0,1,118.18,698.58Zm591-295L634,680.61a24.75,24.75,0,0,1-23.85,18.25h0l-424.75-.24a79.27,79.27,0,0,0,6-15.43l75.94-279.57Z"/><path class="cls-2" d="M564.92,109A103.22,103.22,0,0,1,664,183.92l-25-19.41L613.18,197.8,689,256.72l75.85-58.92L739,164.51l-30.86,24C696.87,119.61,636.94,66.9,564.92,66.9c-80.06,0-145.2,65.13-145.2,145.19h42.15A103.17,103.17,0,0,1,564.92,109Z"/><path class="cls-3" d="M310.41,656.38l0-42.15,254.44.25,0,42.15Z"/></svg>