<svg id="Camada_1" data-name="Camada 1" xmlns="http://www.w3.org/2000/svg" xmlns:xlink="http://www.w3.org/1999/xlink" viewBox="0 0 800 800"><defs><style>.cls-1{fill:url(#Gradiente_sem_nome_7);}.cls-2{fill:url(#Gradiente_sem_nome_7-2);}.cls-3{fill:url(#Gradiente_sem_nome_7-3);}.cls-4{fill:url(#Gradiente_sem_nome_7-4);}.cls-5{fill:url(#Gradiente_sem_nome_7-5);}.cls-6{fill:url(#Gradiente_sem_nome_7-6);}.cls-7{fill:url(#Gradiente_sem_nome_7-7);}</style><linearGradient id="Gradiente_sem_nome_7" x1="51" y1="408.59" x2="768.88" y2="408.59" gradientUnits="userSpaceOnUse"><stop offset="0" stop-color="#f3801f"/><stop offset="0.11" stop-color="#eb7c21"/><stop offset="0.28" stop-color="#d57226"/><stop offset="0.49" stop-color="#b2602d"/><stop offset="0.74" stop-color="#814838"/><stop offset="1" stop-color="#432a46"/></linearGradient><linearGradient id="Gradiente_sem_nome_7-2" x1="98.79" y1="109.91" x2="134.63" y2="109.91" xlink:href="#Gradiente_sem_nome_7"/><linearGradient id="Gradiente_sem_nome_7-3" x1="158.53" y1="109.91" x2="194.37" y2="109.91" xlink:href="#Gradiente_sem_nome_7"/><linearGradient id="Gradiente_sem_nome_7-4" x1="218.26" y1="109.91" x2="254.11" y2="109.91" xlink:href="#Gradiente_sem_nome_7"/><linearGradient id="Gradiente_sem_nome_7-5" x1="110.29" y1="229.37" x2="720.04" y2="229.37" xlink:href="#Gradiente_sem_nome_7"/><linearGradient id="Gradiente_sem_nome_7-6" x1="265.97" y1="468.26" x2="552.64" y2="468.26" xlink:href="#Gradiente_sem_nome_7"/><linearGradient id="Gradiente_sem_nome_7-7" x1="349.61" y1="468.26" x2="469.09" y2="468.26" xlink:href="#Gradiente_sem_nome_7"/></defs><title>4</title><g id="_046---Money-Growth" data-name="046---Money-Growth"><path id="Shape" class="cls-1" d="M721.05,50.17H98.79A47.79,47.79,0,0,0,51,98V492.23a35.84,35.84,0,0,0,35.84,35.84H228A190.71,190.71,0,0,0,506.3,632.8L626.51,753a47.79,47.79,0,0,0,67.58-67.58L573.89,565.2a188.64,188.64,0,0,0,16.82-37.13H732a35.84,35.84,0,0,0,35.84-35.84V162.48c1.38-3.18,1,.45,1-64.52a47.79,47.79,0,0,0-47.78-47.79Zm-430,536.44a167.26,167.26,0,1,1,236.56,0A167.27,167.27,0,0,1,291.07,586.61Zm295.7,92.9-60.26-60.33a174.14,174.14,0,0,0,33.76-33.76l60.29,60.29a23.9,23.9,0,0,1-33.79,33.79Zm90.43,56.65a23.9,23.9,0,0,1-33.8,0l-27.55-27.55a46.3,46.3,0,0,0,33.8-33.8l27.55,27.55a23.9,23.9,0,0,1,0,33.75ZM744,492.23a11.94,11.94,0,0,1-12,11.94H597a191.16,191.16,0,1,0-375.36,0H86.84a11.94,11.94,0,0,1-12-11.94V98a23.9,23.9,0,0,1,23.9-23.89H721.05A23.9,23.9,0,0,1,744.94,98v55C743.49,156.3,744,131.22,744,492.23Z"/><path id="Shape-2" data-name="Shape" class="cls-2" d="M122.68,121.86a12,12,0,0,0,0-23.9H110.74a11.95,11.95,0,1,0,0,23.9Z"/><path id="Shape-3" data-name="Shape" class="cls-3" d="M170.47,121.86h11.95a12,12,0,1,0,0-23.9H170.47a12,12,0,0,0,0,23.9Z"/><path id="Shape-4" data-name="Shape" class="cls-4" d="M230.21,121.86h11.95a12,12,0,1,0,0-23.9H230.21a11.95,11.95,0,0,0,0,23.9Z"/><path id="Shape-5" data-name="Shape" class="cls-5" d="M672.26,98a47.8,47.8,0,0,0-46.7,57.78l-84.72,42.37a47.48,47.48,0,0,0-75.36,4.45L382.75,173.1a47.64,47.64,0,1,0-87.65,5.75L185.61,273.71a47.86,47.86,0,1,0,15.53,18.16L310.63,197A47.15,47.15,0,0,0,369,193.54l88.66,31.58a47.67,47.67,0,1,0,94.06-5.75L636.42,177A47.7,47.7,0,1,0,672.26,98Zm-513.73,239A23.9,23.9,0,1,1,182.42,313,23.9,23.9,0,0,1,158.53,336.91ZM313.84,157.7a23.9,23.9,0,1,1,23.9,23.89A23.89,23.89,0,0,1,313.84,157.7ZM505,253.28a23.9,23.9,0,1,1,23.9-23.9A23.89,23.89,0,0,1,505,253.28Zm167.26-83.63a23.9,23.9,0,1,1,16.9-7A23.9,23.9,0,0,1,672.26,169.65Z"/><path id="Shape-6" data-name="Shape" class="cls-6" d="M510.72,366.89a143.37,143.37,0,1,0,0,202.74A143.36,143.36,0,0,0,510.72,366.89ZM493.83,552.74a119.47,119.47,0,1,1,0-169A119.48,119.48,0,0,1,493.83,552.74Z"/><path id="Shape-7" data-name="Shape" class="cls-7" d="M445.19,432.42a12,12,0,0,0,11.95,11.95c22.87,0,13.75-50.69-35.84-58.77a12,12,0,1,0-23.9,0c-27.23,4.44-47.79,23.74-47.79,46.82s20.56,42.39,47.79,46.82v47.24c-13.74-3.38-23.89-12.21-23.89-22.38a11.94,11.94,0,0,0-11.95-11.94c-22.87,0-13.74,50.68,35.84,58.76a11.95,11.95,0,1,0,23.9,0c27.23-4.43,47.79-23.74,47.79-46.82s-20.56-42.37-47.79-46.82V410c13.74,3.33,23.89,12.22,23.89,22.38ZM397.4,410V454.8C365.66,447,365.66,417.84,397.4,410Zm23.9,116.44V481.73C453,489.53,453,518.68,421.3,526.48Z"/></g></svg>